<svg xmlns="http://www.w3.org/2000/svg" xmlns:svg="http://www.w3.org/2000/svg" id="svg4" width="256" height="64" fill="none" version="1.1" viewBox="0 0 256 64"><metadata id="metadata10"/><defs id="defs8"><rect id="rect348" width="334.519" height="47.489" x="12.5" y="14.599"/></defs><g id="layer1" style="display:inline"><circle style="fill:#2c4597;fill-opacity:1;stroke:none;stroke-width:1.418;stroke-linejoin:round" id="path1117" cx="128" cy="54.981" r="2.849"/><path style="fill:#2c4597;fill-opacity:1;stroke:none;stroke-width:1px;stroke-linecap:butt;stroke-linejoin:miter;stroke-opacity:1" id="path1863" d="M 121.76153,57.829655 V 52.131549 L 27.172269,54.980602 Z"/><path style="fill:#2c4597;fill-opacity:1;stroke:none;stroke-width:1px;stroke-linecap:butt;stroke-linejoin:miter;stroke-opacity:1" id="path2192" d="M 134.23847,57.829656 V 52.13155 l 94.58926,2.849053 z"/></g><g id="layer2"><g id="text346" aria-label="Thoughts of..." transform="matrix(0.54169298,0,0,0.54169298,1.6702018,-2.3409923)" style="font-size:40px;line-height:1.25;white-space:pre;shape-inside:url(#rect348);display:inline;fill:#a5b4e5"><path id="path297" d="m 25.42,50.992664 h -3.6 v -25.4 H 12.9 v -3.16 h 21.4 v 3.16 h -8.88 z"/><path id="path299" d="m 41.65999,29.512664 q 0,1.6 -0.2,3 h 0.24 q 1.04,-1.64 2.8,-2.48 1.8,-0.84 3.88,-0.84 3.92,0 5.88,1.88 1.96,1.84 1.96,5.96 v 13.96 h -3.48 v -13.72 q 0,-5.16 -4.8,-5.16 -3.6,0 -4.96,2.04 -1.32,2 -1.32,5.76 v 11.08 h -3.52 v -30.4 h 3.52 z"/><path id="path301" d="m 81.499991,40.232664 q 0,5.32 -2.72,8.24 -2.68,2.92 -7.28,2.92 -2.84,0 -5.08,-1.28 -2.2,-1.32 -3.48,-3.8 -1.28,-2.52 -1.28,-6.08 0,-5.32 2.68,-8.2 2.68,-2.88 7.28,-2.88 2.92,0 5.12,1.32 2.24,1.28 3.48,3.76 1.28,2.44 1.28,6 z m -16.2,0 q 0,3.8 1.48,6.04 1.52,2.2 4.8,2.2 3.24,0 4.76,-2.2 1.52,-2.24 1.52,-6.04 0,-3.8 -1.52,-5.96 -1.52,-2.16 -4.8,-2.16 -3.28,0 -4.76,2.16 -1.48,2.16 -1.48,5.96 z"/><path id="path303" d="m 104.97997,29.552664 v 21.44 h -2.88 l -0.52,-2.84 h -0.16 q -1.04,1.68 -2.879997,2.48 -1.84,0.76 -3.92,0.76 -3.88,0 -5.84,-1.84 -1.96,-1.88 -1.96,-5.96 v -14.04 h 3.56 v 13.8 q 0,5.12 4.76,5.12 3.56,0 4.919997,-2 1.4,-2 1.4,-5.76 v -11.16 z"/><path id="path305" d="m 119.37997,29.152664 q 2.12,0 3.8,0.8 1.72,0.8 2.92,2.44 h 0.2 l 0.48,-2.84 h 2.8 v 21.8 q 0,4.6 -2.36,6.92 -2.32,2.32 -7.24,2.32 -4.72,0 -7.72,-1.36 v -3.24 q 3.16,1.68 7.92,1.68 2.76,0 4.32,-1.64 1.6,-1.6 1.6,-4.4 v -0.84 q 0,-0.48 0.04,-1.36 0.04,-0.92 0.08,-1.28 h -0.16 q -2.16,3.24 -6.64,3.24 -4.16,0 -6.52,-2.92 -2.32,-2.92 -2.32,-8.16 0,-5.12 2.32,-8.12 2.36,-3.04 6.48,-3.04 z m 0.48,2.96 q -2.68,0 -4.16,2.16 -1.48,2.12 -1.48,6.08 0,3.96 1.44,6.08 1.48,2.08 4.28,2.08 3.24,0 4.72,-1.72 1.48,-1.76 1.48,-5.64 v -0.84 q 0,-4.4 -1.52,-6.28 -1.52,-1.92 -4.76,-1.92 z"/><path id="path307" d="m 139.89997,29.512664 q 0,1.6 -0.2,3 h 0.24 q 1.04,-1.64 2.8,-2.48 1.8,-0.84 3.88,-0.84 3.92,0 5.88,1.88 1.96,1.84 1.96,5.96 v 13.96 h -3.48 v -13.72 q 0,-5.16 -4.8,-5.16 -3.6,0 -4.96,2.04 -1.32,2 -1.32,5.76 v 11.08 h -3.52 v -30.4 h 3.52 z"/><path id="path309" d="m 168.25997,48.512664 q 0.8,0 1.64,-0.12 0.84,-0.16 1.36,-0.32 v 2.68 q -0.56,0.28 -1.6,0.44 -1.04,0.2 -2,0.2 -1.68,0 -3.12,-0.56 -1.4,-0.6 -2.28,-2.04 -0.88,-1.44 -0.88,-4.04 v -12.48 h -3.04 v -1.68 l 3.08,-1.4 1.4,-4.56 h 2.08 v 4.92 h 6.2 v 2.72 h -6.2 v 12.4 q 0,1.96 0.92,2.92 0.96,0.92 2.44,0.92 z"/><path id="path311" d="m 189.49997,45.072664 q 0,3.12 -2.32,4.72 -2.32,1.6 -6.24,1.6 -2.24,0 -3.88,-0.36 -1.6,-0.36 -2.84,-1 v -3.2 q 1.28,0.64 3.08,1.2 1.84,0.52 3.72,0.52 2.68,0 3.88,-0.84 1.2,-0.88 1.2,-2.32 0,-0.8 -0.44,-1.44 -0.44,-0.64 -1.6,-1.28 -1.12,-0.64 -3.24,-1.44 -2.08,-0.8 -3.56,-1.6 -1.48,-0.8 -2.28,-1.92 -0.8,-1.12 -0.8,-2.88 0,-2.72 2.2,-4.2 2.24,-1.48 5.84,-1.48 1.96,0 3.64,0.4 1.72,0.36 3.2,1.04 l -1.2,2.8 q -1.36,-0.56 -2.84,-0.96 -1.48,-0.4 -3.04,-0.4 -2.16,0 -3.32,0.72 -1.12,0.68 -1.12,1.88 0,0.88 0.52,1.52 0.52,0.6 1.72,1.2 1.24,0.56 3.28,1.36 2.04,0.76 3.48,1.56 1.44,0.8 2.2,1.96 0.76,1.12 0.76,2.84 z"/><path id="path313" d="m 223.73998,40.232664 q 0,5.32 -2.72,8.24 -2.68,2.92 -7.28,2.92 -2.84,0 -5.08,-1.28 -2.2,-1.32 -3.48,-3.8 -1.28,-2.52 -1.28,-6.08 0,-5.32 2.68,-8.2 2.68,-2.88 7.28,-2.88 2.92,0 5.12,1.32 2.24,1.28 3.48,3.76 1.28,2.44 1.28,6 z m -16.2,0 q 0,3.8 1.48,6.04 1.52,2.2 4.8,2.2 3.24,0 4.76,-2.2 1.52,-2.24 1.52,-6.04 0,-3.8 -1.52,-5.96 -1.52,-2.16 -4.8,-2.16 -3.28,0 -4.76,2.16 -1.48,2.16 -1.48,5.96 z"/><path id="path315" d="m 239.17996,32.272664 h -5.4 v 18.72 h -3.52 v -18.72 h -3.76 v -1.64 l 3.76,-1.2 v -1.24 q 0,-4.16 1.84,-5.96 1.84,-1.84 5.12,-1.84 1.28,0 2.32,0.24 1.08,0.2 1.84,0.48 l -0.92,2.76 q -0.64,-0.2 -1.48,-0.4 -0.84,-0.2 -1.72,-0.2 -1.76,0 -2.64,1.2 -0.84,1.16 -0.84,3.68 v 1.4 h 5.4 z"/><path id="path317" d="m 241.73994,48.832664 q 0,-1.48 0.72,-2.08 0.72,-0.6 1.72,-0.6 1.04,0 1.76,0.6 0.76,0.6 0.76,2.08 0,1.44 -0.76,2.08 -0.72,0.64 -1.76,0.64 -1,0 -1.72,-0.64 -0.72,-0.64 -0.72,-2.08 z"/><path id="path319" d="m 252.45993,48.832664 q 0,-1.48 0.72,-2.08 0.72,-0.6 1.72,-0.6 1.04,0 1.76,0.6 0.76,0.6 0.76,2.08 0,1.44 -0.76,2.08 -0.72,0.64 -1.76,0.64 -1,0 -1.72,-0.64 -0.72,-0.64 -0.72,-2.08 z"/><path id="path321" d="m 263.17991,48.832664 q 0,-1.48 0.72,-2.08 0.72,-0.6 1.72,-0.6 1.04,0 1.76,0.6 0.76,0.6 0.76,2.08 0,1.44 -0.76,2.08 -0.72,0.64 -1.76,0.64 -1,0 -1.72,-0.64 -0.72,-0.64 -0.72,-2.08 z"/></g><g id="text1437" aria-label="The Captain" style="font-size:40px;line-height:1.25;fill:#000"><path style="font-family:Z003;-inkscape-font-specification:Z003" id="path324" d="m 77.339812,39.081627 c 9.64,0 10.24,-0.08 13.48,-1.88 l 0.08,-0.32 c -1.8,0.24 -4.28,0.4 -6.48,0.4 -0.32,0 -1,-0.04 -1.84,-0.08 3.08,-2.6 4.08,-4.04 4.76,-7.08 l 3.12,-12.52 c 5.2,0.44 5.24,0.44 6.08,0.44 1.88,0 2.16,-0.4 3.12,-4.32 l -0.52,-0.6 c -1.64,2.8 -1.84,3 -3.28,3 -0.4,0 -1.28,-0.04 -2.52,-0.08 -5.84,-0.28 -6.48,-0.32 -7.88,-0.32 -7,0 -12.2,3.8 -12.2,8.92 0,1.32 0.28,2.4 1,3.8 l 3,-1.96 c -0.76,-1.92 -0.92,-2.56 -0.92,-3.68 0,-2.28 1.04,-3.96 3,-4.88 1.04,-0.48 2.4,-0.68 4.64,-0.68 0.88,0 1.04,0 3.6,0.2 l -3.24,13.04 c -1.44,5.88 -2.2,6.88 -5.6,7.04 z"/><path style="font-family:Z003;-inkscape-font-specification:Z003" id="path326" d="m 94.579842,39.441627 2.84,-1.16 2.36,-9.32 c 0.399998,-0.28 0.759998,-0.48 0.959998,-0.6 1.04,-0.68 1.76,-1.12 1.92,-1.2 2.64,-1.44 2.64,-1.44 3,-1.44 0.24,0 0.44,0.24 0.44,0.6 0,0.56 -0.16,1.32 -0.72,3.44 -1.16,4.52 -1.72,7.12 -1.72,8.2 0,0.52 0.16,0.96 0.6,1.72 2.2,-1.12 5.12,-2.96 7.28,-4.56 l 0.28,-1.16 c -3.32,1.96 -3.96,2.28 -4.48,2.28 -0.36,0 -0.6,-0.4 -0.6,-1.04 0,-1.08 0.2,-1.88 1.8,-7.76 1.04,-3.88 1.04,-3.88 1.04,-4.12 0,-0.4 -0.32,-0.68 -0.84,-0.68 -0.88,0 -3.48,1.44 -8.6,4.76 l 1.36,-5.36 c 0.96,-3.92 1.36,-5.16 1.88,-6.16 0.56,-1.12 1.4,-1.64 2.48,-1.64 0.52,0 0.84,0.04 2.4,0.36 l 1.72,-2.44 c -0.72,-0.16 -1.04,-0.2 -1.68,-0.2 -2.16,0 -3.32,0.6 -6.24,3.16 -2.079998,1.84 -2.399998,2.52 -3.639998,7.8 z"/><path style="font-family:Z003;-inkscape-font-specification:Z003" id="path328" d="m 124.37986,33.601627 c -3.2,2.72 -4.92,3.72 -6.44,3.72 -1.04,0 -1.84,-0.68 -2.12,-1.72 -0.16,-0.64 -0.2,-1.08 -0.2,-2.24 1.84,-1.16 2.96,-1.96 5.32,-3.72 2.2,-1.64 3,-2.96 3,-4.76 0,-1.4 -0.84,-2.24 -2.28,-2.24 -0.88,0 -1.48,0.2 -2.44,0.72 -1.52,0.88 -2.88,1.96 -3.68,2.92 -1.52,1.84 -2.88,6.24 -2.88,9.48 0,2.36 1.24,3.84 3.28,3.84 2.36,0 5.4,-1.76 8.4,-4.84 z m -8.64,-1.68 c 0.68,-4.32 2.48,-7.6 4.24,-7.6 0.64,0 1.08,0.64 1.08,1.64 0,2 -1.16,3.28 -5.32,5.96 z"/><path style="font-family:Z003;-inkscape-font-specification:Z003" id="path330" d="m 152.73984,36.561627 c -3.68,2.52 -6.4,3.56 -9.2,3.56 -3.16,0 -5.16,-2.4 -5.16,-6.2 0,-8.32 5.88,-16.6 11.8,-16.6 2.4,0 3.6,1.48 3.84,4.64 l 2.96,-2.52 c -0.16,-1.28 -0.4,-1.92 -0.88,-2.52 -0.76,-0.92 -2.2,-1.48 -3.8,-1.48 -3.48,0 -7.52,2.04 -11.04,5.56 -3.88,3.88 -6.16,9.2 -6.16,14.4 0,4.12 2.28,6.6 6.08,6.6 3.48,0 7.8,-1.6 11.28,-4.24 z"/><path style="font-family:Z003;-inkscape-font-specification:Z003" id="path332" d="m 171.33987,33.841627 c -2.92,2 -3.6,2.4 -4,2.4 -0.28,0 -0.48,-0.32 -0.48,-0.8 0,-1.08 0.92,-5.28 2.4,-10.76 0.44,-0.64 0.52,-0.72 1.16,-1.44 -1.92,-0.44 -3.28,-0.6 -5.04,-0.6 -1.64,0 -2.44,0.16 -3.44,0.8 -1.44,0.84 -3.12,2.08 -3.64,2.64 -1.52,1.68 -3.16,7.08 -3.16,10.32 0,1.92 0.64,3.2 1.64,3.2 0.88,0 2.2,-0.8 7.2,-4.4 -0.44,2.04 -0.6,3.04 -0.6,3.56 0,0.56 0.24,0.84 0.64,0.84 0.52,0 0.84,-0.16 3.68,-2.04 1.36,-0.92 2.12,-1.44 3.6,-2.52 z m -7.04,-0.28 c -1.4,1.04 -2.12,1.56 -2.16,1.6 -1.32,0.84 -2.36,1.36 -2.88,1.36 -0.68,0 -1.04,-0.72 -1.04,-2 0,-2.04 0.6,-4.68 1.64,-7 0.96,-2.2 1.84,-3.04 3.2,-3.04 0.72,0 2.08,0.2 3.4,0.52 -0.8,2.88 -1.08,3.96 -1.12,4.16 -0.24,1 -0.44,2 -0.68,3.04 -0.04,0.2 -0.16,0.68 -0.36,1.36 z"/><path style="font-family:Z003;-inkscape-font-specification:Z003" id="path334" d="m 169.33988,47.601627 -1.2,1.28 c 0.72,0.04 1.2,0.04 1.36,0.04 l 2.88,0.04 2.56,0.04 c 0.32,0 0.88,0 1.88,-0.04 l 1.24,-1 -4.48,-0.24 c 0.52,-2.44 0.76,-3.6 0.92,-4.24 0.2,-0.84 0.36,-1.68 0.56,-2.56 l 0.44,-1.72 c 0.8,0.16 1.24,0.2 1.92,0.2 2.2,0 2.64,-0.2 5.76,-2.8 1.36,-1.08 1.84,-1.64 2.44,-2.8 1.28,-2.6 2.12,-5.72 2.12,-8 0,-1.92 -0.84,-3.16 -2.16,-3.16 -0.96,0 -2.32,0.6 -3.96,1.8 -1.76,1.28 -2.84,2.08 -3.28,2.36 0.56,-2.36 0.84,-3.56 0.84,-3.64 0,-0.24 -0.28,-0.52 -0.56,-0.52 -0.4,0 -3.64,1.72 -6.6,3.48 l -0.24,1.04 c 0.28,-0.12 0.84,-0.36 1.64,-0.68 0.76,-0.36 0.92,-0.4 1.24,-0.4 0.48,0 0.76,0.4 0.76,1.12 0,1.44 -2.36,11.72 -4.64,20.32 z m 7.12,-12.44 0.6,-2.72 0.6,-2.6 c 0.04,-0.2 0.16,-0.72 0.32,-1.44 3.24,-2.4 4.52,-3.08 5.56,-3.08 0.8,0 1.32,0.84 1.32,2.2 0,1.8 -0.56,4.08 -1.56,6.24 -1.08,2.4 -2.44,3.56 -4.08,3.56 -1,0 -2.08,-0.32 -3.04,-0.88 z"/><path style="font-family:Z003;-inkscape-font-specification:Z003" id="path336" d="m 200.25992,34.041627 c -3.04,1.84 -4.32,2.48 -4.88,2.48 -0.52,0 -1.16,-1 -1.16,-1.88 0,-0.56 0.04,-0.68 0.92,-4.48 0.2,-0.72 0.36,-1.48 0.52,-2.24 0.04,-0.12 0.2,-0.76 0.28,-1.12 1.36,-0.04 2.6,-0.12 3.96,-0.2 l 1.52,-1.16 h -5.12 c 0.2,-0.92 0.28,-1.2 0.4,-1.8 0.12,-0.4 0.4,-1.48 0.96,-3.64 l 0.24,-1.04 -0.68,0.36 c -0.24,0.08 -0.56,0.24 -1,0.44 -0.28,0.16 -0.6,0.28 -0.92,0.44 -0.16,0.08 -0.32,0.16 -0.56,0.24 l -0.36,1.64 -0.44,1.92 -0.32,1.44 c -0.36,0.04 -0.6,0.04 -0.72,0.04 h -0.96 c -0.08,0 -0.28,0 -0.6,0.04 -0.2,0.12 -0.36,0.24 -0.4,0.24 -0.12,0.08 -0.36,0.28 -0.76,0.6 -0.08,0.04 -0.28,0.24 -0.6,0.44 h 0.96 1.84 0.88 l -0.4,1.76 c -1.72,7.08 -1.72,7.08 -1.72,8.36 0,1.28 0.84,2.68 1.6,2.68 0.88,0 3.6,-1.64 7.44,-4.56 z"/><path style="font-family:Z003;-inkscape-font-specification:Z003" id="path338" d="m 218.29994,33.841627 c -2.92,2 -3.6,2.4 -4,2.4 -0.28,0 -0.48,-0.32 -0.48,-0.8 0,-1.08 0.92,-5.28 2.4,-10.76 0.44,-0.64 0.52,-0.72 1.16,-1.44 -1.92,-0.44 -3.28,-0.6 -5.04,-0.6 -1.64,0 -2.44,0.16 -3.44,0.8 -1.44,0.84 -3.12,2.08 -3.64,2.64 -1.52,1.68 -3.16,7.08 -3.16,10.32 0,1.92 0.64,3.2 1.64,3.2 0.88,0 2.2,-0.8 7.2,-4.4 -0.44,2.04 -0.6,3.04 -0.6,3.56 0,0.56 0.24,0.84 0.64,0.84 0.52,0 0.84,-0.16 3.68,-2.04 1.36,-0.92 2.12,-1.44 3.6,-2.52 z m -7.04,-0.28 c -1.4,1.04 -2.12,1.56 -2.16,1.6 -1.32,0.84 -2.36,1.36 -2.88,1.36 -0.68,0 -1.04,-0.72 -1.04,-2 0,-2.04 0.6,-4.68 1.64,-7 0.96,-2.2 1.84,-3.04 3.2,-3.04 0.72,0 2.08,0.2 3.4,0.52 -0.8,2.88 -1.08,3.96 -1.12,4.16 -0.24,1 -0.44,2 -0.68,3.04 -0.04,0.2 -0.16,0.68 -0.36,1.36 z"/><path style="font-family:Z003;-inkscape-font-specification:Z003" id="path340" d="m 226.33994,14.441627 c -1.12,0.88 -2.04,1.6 -2.76,2.08 0.28,0.84 0.64,1.52 1.52,2.8 1.12,-1 1.24,-1.12 2.6,-2.16 -0.12,-0.24 -0.2,-0.4 -0.52,-0.92 -0.24,-0.48 -0.28,-0.48 -0.6,-1.28 z m 1.52,20 -0.68,0.36 c -2.76,1.52 -3.24,1.72 -3.72,1.72 -0.44,0 -0.72,-0.44 -0.72,-1.12 0,-0.68 0,-0.68 1.32,-5.96 1.48,-6.08 1.48,-6.08 1.48,-6.4 0,-0.24 -0.2,-0.4 -0.48,-0.4 -0.68,0 -3.04,1.32 -6.32,3.52 l -0.08,1.12 c 2.44,-1.32 2.56,-1.36 2.92,-1.36 0.32,0 0.48,0.24 0.48,0.68 0,0.56 -0.12,1.12 -0.72,3.4 -1.88,6.96 -1.88,6.96 -1.88,8 0,0.96 0.36,1.6 0.96,1.6 0.68,0 1.76,-0.52 3.88,-1.88 0.76,-0.48 1.52,-0.96 2.28,-1.48 0.36,-0.2 0.64,-0.4 1.12,-0.68 z"/><path style="font-family:Z003;-inkscape-font-specification:Z003" id="path342" d="m 231.57994,38.321627 2.36,-9.4 1,-0.64 c 3.72,-2.32 4.16,-2.56 4.72,-2.56 0.24,0 0.4,0.2 0.4,0.52 0,0.64 -0.28,1.8 -1.48,6.68 -0.88,3.52 -1.04,4.24 -1.04,5 0,0.56 0.16,1.04 0.6,1.8 1.8,-0.8 4.6,-2.56 7.4,-4.64 l 0.28,-1.12 c -3.88,2.24 -4.16,2.36 -4.56,2.36 -0.4,0 -0.64,-0.4 -0.64,-1.08 0,-1.08 0.16,-1.76 1.92,-8.12 1,-3.56 1,-3.56 1,-3.8 0,-0.44 -0.28,-0.68 -0.76,-0.68 -0.88,0 -1,0.08 -5.32,2.72 -1.6,1 -2.64,1.64 -3.12,1.96 0.4,-1.4 0.96,-3.84 0.96,-4.16 0,-0.32 -0.2,-0.52 -0.52,-0.52 -0.44,0 -3.16,1.4 -6.28,3.24 l -0.24,1.04 c 2.56,-1.16 2.72,-1.2 3.08,-1.2 0.28,0 0.48,0.24 0.48,0.56 0,0.88 -0.72,4.08 -1.76,7.8 l -0.92,3.24 c -0.08,0.28 -0.28,1.04 -0.56,2.16 z"/></g></g></svg>